<svg width="28" height="27" viewBox="0 0 28 27" fill="none" xmlns="http://www.w3.org/2000/svg">
<g filter="url(#filter0_d_117_349)">
<path d="M24.5 23.5L19.2663 18.257M22.1666 11.25C22.1666 13.88 21.1219 16.4024 19.2621 18.2621C17.4024 20.1219 14.88 21.1666 12.25 21.1666C9.61992 21.1666 7.09757 20.1219 5.23784 18.2621C3.3781 16.4024 2.33331 13.88 2.33331 11.25C2.33331 8.61992 3.3781 6.09757 5.23784 4.23784C7.09757 2.3781 9.61992 1.33331 12.25 1.33331C14.88 1.33331 17.4024 2.3781 19.2621 4.23784C21.1219 6.09757 22.1666 8.61992 22.1666 11.25V11.25Z" stroke="black" stroke-width="2" stroke-linecap="round" shape-rendering="crispEdges"/>
</g>
<defs>
<filter id="filter0_d_117_349" x="-2.66669" y="0.333313" width="32.1667" height="32.1667" filterUnits="userSpaceOnUse" color-interpolation-filters="sRGB">
<feFlood flood-opacity="0" result="BackgroundImageFix"/>
<feColorMatrix in="SourceAlpha" type="matrix" values="0 0 0 0 0 0 0 0 0 0 0 0 0 0 0 0 0 0 127 0" result="hardAlpha"/>
<feOffset dy="4"/>
<feGaussianBlur stdDeviation="2"/>
<feComposite in2="hardAlpha" operator="out"/>
<feColorMatrix type="matrix" values="0 0 0 0 0 0 0 0 0 0 0 0 0 0 0 0 0 0 0.25 0"/>
<feBlend mode="normal" in2="BackgroundImageFix" result="effect1_dropShadow_117_349"/>
<feBlend mode="normal" in="SourceGraphic" in2="effect1_dropShadow_117_349" result="shape"/>
</filter>
</defs>
</svg>
